<svg xmlns="http://www.w3.org/2000/svg" viewBox="0 0 256 256"><defs><style>.a{fill:#ffff36;opacity:0.7;}.a,.b,.c,.d,.e,.f,.g,.h,.k{stroke:#000;}.a,.b,.c,.e,.g,.h{stroke-miterlimit:10;}.a,.b,.c{stroke-width:4.34px;}.b,.f,.g,.h{fill:none;}.c{fill:#ccc;}.d{fill:#e2725b;}.d,.f,.k{stroke-linecap:round;stroke-linejoin:round;}.d,.k{stroke-width:1.26px;}.e{fill:#f7931e;stroke-width:1.25px;}.f{stroke-width:0.94px;}.g{stroke-width:0.63px;}.h{stroke-width:0.95px;}.i{font-size:43.81px;}.i,.j{font-family:BalooBhaina2-Regular, "Baloo Bhaina 2";}.j{font-size:43.81px;}.k{fill:#29abe2;}</style></defs><title>logo</title><path class="a" d="M107.56,163.85a34.83,34.83,0,0,1-5.71-11.7c-1.5-5.65-.61-8.43-1.71-13.12-1.68-7.22-6.19-11-9.41-14.84C79.62,111,79.6,92.38,79.6,89.1c0-5.18.78-26.07,18-40.23,2.16-1.77,16.28-13,36.24-10.84a49.11,49.11,0,0,1,26.53,11.7A49.78,49.78,0,0,1,176,99.66c-2.68,10.28-6.33,9.78-12.84,26.53-3.39,8.73-5.09,13.09-5.7,17.69-.75,5.54-.32,9.48-3.14,14a20,20,0,0,1-7.47,6.74C133.57,172.26,109.66,164.54,107.56,163.85Z"/><path class="b" d="M107.56,163.85a34.83,34.83,0,0,1-5.71-11.7c-1.5-5.65-.61-8.43-1.71-13.12-1.68-7.22-6.19-11-9.41-14.84C79.62,111,79.6,92.38,79.6,89.1c0-5.18.78-26.07,18-40.23,2.16-1.77,16.28-13,36.24-10.84a49.11,49.11,0,0,1,26.53,11.7A49.78,49.78,0,0,1,176,99.66c-2.68,10.28-6.33,9.78-12.84,26.53-3.39,8.73-5.09,13.09-5.7,17.69-.75,5.54-.32,9.48-3.14,14a20,20,0,0,1-7.47,6.74C133.57,172.26,109.66,164.54,107.56,163.85Z"/><path class="c" d="M107.56,163.85c-1.53,4.44-1,6.65-.13,7.85.49.68,1.45,2,1.36,3.05s-.79,1.09-1,2.37.35,1.38.34,3.23c0,1-.16,1-.17,2.2s.12,1.37.17,2.38c.09,1.72-.21,2.06-.17,3.22a9.48,9.48,0,0,0,1.19,3.73c1.54,3.43,2.31,5.14,2.55,5.43,2.4,2.89,4.93,1.8,7.12,4.75,1.33,1.78.57,2.41,1.7,3.9,2.79,3.7,10.79,4.24,14.92.85,1.58-1.29.79-1.68,3.4-4.58,1.25-1.4,1.93-1.87,6.27-5.94,2.12-2,2.92-2.78,3.06-4.07s-.41-1.55-.51-3.56a17.82,17.82,0,0,1,.34-3.56c.61-4.61.64-4.8.68-5.26.23-2.68-.06-2.57.17-4.58.31-2.8.92-3.44,1.18-5.43a13.56,13.56,0,0,0-.86-6.64,51.44,51.44,0,0,1-41.59.66Z"/><path class="b" d="M108.49,173.4a89.65,89.65,0,0,0,41-1.16"/><path class="b" d="M108.49,179.76a89.56,89.56,0,0,0,40.24-1"/><path class="b" d="M108.49,186.11a63.82,63.82,0,0,0,39.49-1"/><path class="b" d="M109.51,192.73a46,46,0,0,0,38,0"/><rect class="d" x="129.16" y="92.51" width="10.22" height="2.02" transform="translate(40.75 227.79) rotate(-90)"/><path class="e" d="M114.51,110.62v21.55h27V110.62a2.71,2.71,0,0,0-2.72-2.71H117.23A2.71,2.71,0,0,0,114.51,110.62Z"/><path class="d" d="M114.71,109.62a3.15,3.15,0,0,1,.21-.4l.24-.4a9,9,0,0,1,.74-.91H137l2.25,0a2.39,2.39,0,0,1,2.08,1.75c-2.19-4.52-11.37-23.43-12-24.29a.75.75,0,0,0-1.34,0C126.83,86.55,114.66,109.71,114.71,109.62Z"/><path class="f" d="M135.31,84.65c-.84-.06-1.57-.42-1.72-.93-.21-.74,2.2-1.36,2.11-2.11s-2.52-.6-2.84-1.65,1.21-1.86,1.72-3.7a6.18,6.18,0,0,0-.92-4.64"/><path class="g" d="M123.62,118.77h-4.76a.72.72,0,0,1-.72-.72V113.3a.72.72,0,0,1,.72-.72h4.76a.72.72,0,0,1,.72.72v4.75A.72.72,0,0,1,123.62,118.77Z"/><rect class="h" x="132.54" y="117.45" width="6.19" height="14.36" rx="0.56"/><path class="g" d="M121.24,118.77v-6.19"/><path class="g" d="M118.16,115.59h6.19"/><text class="i" transform="translate(76.24 53.2) rotate(-38.96)">M</text><text class="i" transform="matrix(0.95, -0.3, 0.3, 0.95, 101.3, 33.65)">a</text><text class="i" transform="translate(120.4 27.64) rotate(-1.98)">r</text><text class="i" transform="translate(135.17 26.49) rotate(13.76)">a</text><text class="i" transform="matrix(0.85, 0.53, -0.53, 0.85, 154.56, 30.82)">d</text><text class="i" transform="translate(173.35 43.23) rotate(43.91)">j</text><text class="j" transform="translate(66.48 188.19) rotate(69.02)">O</text><text class="j" transform="matrix(0.71, 0.71, -0.71, 0.71, 82.81, 222.23)">t</text><text class="j" transform="translate(102.75 239.55) rotate(22.9)">t</text><text class="j" transform="matrix(0.98, -0.21, 0.21, 0.98, 129.06, 248.75)">h</text><text class="j" transform="translate(162.87 236.97) rotate(-48.34)">o</text><text class="j" transform="translate(182.97 211.38) rotate(-74.03)">n</text><path d="M101.59,135.35c.35-1.71,5.49-2.6,7-2.32,1.33.25,2.65,1,4,1.38a13.29,13.29,0,0,0,5.08.63c2.74-.26,5.06-1.58,7.84-1.53s4.85,1.24,7.43,1.8c4.45,1,8.33-1.36,12.74-1.5,5-.16,9.74,1,14.74,0,2.37-.47,1.37-4.09-1-3.62-6.11,1.22-12.27-1.07-18.37.36-3.94.92-6.76,1.25-10.67,0a15.47,15.47,0,0,0-6-1c-3.49.28-6.28,2.15-9.94,1.42-2.92-.58-5.47-2.25-8.52-2.38-3.8-.16-7.08,1.92-7.87,5.7-.48,2.36,3.14,3.37,3.63,1Z"/><path class="k" d="M122.08,105.36l-10.87-3.31q4.49-7,9-14l11.07,2.47-2.94,4.65Q125.11,100.31,122.08,105.36Z"/><path class="d" d="M117.41,92.29l10.67,2.91"/><path class="d" d="M114.45,97.6l10.67,2.91"/><path class="d" d="M123.67,88.82,114.79,103"/><path class="d" d="M127.28,89.62l-9,14.61"/><line class="d" x1="116.11" y1="106.95" x2="111.21" y2="102.05"/><line class="k" x1="122.75" y1="107.91" x2="122.08" y2="105.36"/></svg>